#N canvas 0 23 1280 751 10;
#X obj -181 50 catch~ catch_1;
#X msg -32 427 4096;
#X msg 702 397 4096;
#X obj -189 571 *~;
#X obj -182 82 delwrite~ firstV 5000;
#X obj 542 57 delwrite~ secondV 5000;
#X floatatom -110 376 5 0 0 0 - - -, f 5;
#X floatatom 621 393 5 0 0 0 - - -, f 5;
#X obj -171 521 expr $f1 / 127;
#X obj 569 539 expr $f1 / 127;
#X obj -168 150 expr $f1 / 127;
#X obj 569 122 expr $f1 / 127;
#X obj 621 350 expr ($i1 - 64) * 40;
#X obj -110 349 expr ($i1 - 64) * 40;
#X obj 551 145 *~;
#X obj -186 177 *~;
#X obj -191 286 vd~ firstV 4000;
#X obj 551 260 vd~ secondV 4500;
#X obj -136 250 sig~;
#X obj -136 226 expr ($i1 / 127) * 40;
#X obj 594 237 sig~;
#X obj 594 210 expr ($i1 / 127) * 40;
#X obj -32 402 loadbang;
#X obj 702 373 loadbang;
#N canvas 304 82 740 484 fft-pitchshifter-sub 0;
#N canvas 664 23 616 699 fft-analysis 0;
#X obj 51 477 *~;
#X obj 18 477 *~;
#X obj 18 499 -~;
#X obj 167 475 *~;
#X obj 136 475 *~;
#X obj 136 497 +~;
#X obj 109 193 *~;
#X obj 78 193 *~;
#X obj 50 193 *~;
#X obj 19 193 *~;
#X obj 19 218 +~;
#X obj 127 379 *~;
#X obj 20 622 *~;
#X obj 236 175 rfft~;
#X obj 108 161 rfft~;
#X obj 19 564 rifft~;
#X obj 21 646 outlet~;
#X obj 97 379 *~;
#X obj 97 401 +~;
#X obj 124 218 -~;
#X obj 18 431 *~;
#X obj 51 432 *~;
#X obj 21 728 block~;
#X obj 19 349 +~ 1e-15;
#X obj 19 598 *~;
#X obj 52 598 tabreceive~ \$0-hann;
#X obj 127 643 expr 2/(3*$f1);
#X obj 415 626 loadbang;
#X msg 21 703 set \$1 4;
#X obj 97 425 q8_rsqrt~;
#X obj 121 69 *~;
#X obj 89 69 *~;
#X obj 89 91 +~;
#X obj 159 94 q8_rsqrt~;
#X obj 159 71 +~ 1e-20;
#X obj 73 119 *~;
#X obj 19 118 *~;
#X obj 29 245 lrshift~ 1;
#X obj 24 269 lrshift~ -1;
#X obj 141 245 lrshift~ 1;
#X obj 133 269 lrshift~ -1;
#X obj 35 300 *~;
#X obj 159 312 *~;
#X obj 19 325 +~;
#X obj 125 331 +~;
#N canvas 139 80 520 694 read-windows 0;
#X obj 18 358 line~;
#X obj 16 523 outlet~;
#X obj 125 531 outlet~;
#X text 220 313 "back" window 1/4 cycle behind "front" one;
#X obj 16 441 vd~ \$0-input;
#X obj 123 443 vd~ \$0-input;
#X obj 18 266 pack f f;
#X obj 31 143 t b f;
#X obj 31 184 -;
#X obj 90 145 *;
#X obj 90 114 - 1;
#X obj 90 57 mtof;
#X obj 90 77 / 440;
#X obj 90 38 + 69;
#X obj 353 123 samplerate~;
#X obj 328 102 t f b;
#X obj 328 141 /;
#X obj 328 163 * 1000;
#X obj 90 16 * 0.01;
#X text 376 163 window size (ms);
#X obj 18 207 f;
#X obj 164 468 tabreceive~ \$0-hann;
#X obj 16 492 *~;
#X obj 124 503 *~;
#X obj 18 75 bang~;
#X obj 31 164 100;
#X obj 197 286 *;
#X obj 206 263 t b f;
#X text 235 288 stretched window size (ms);
#X obj 90 -6 r \$0-transpo;
#X obj 328 81 r \$0-window-size;
#X obj 220 210 / 4;
#X text 252 207 computation time for an overlap of 4;
#X obj 18 230 / 4;
#X obj 71 229 / 4;
#X obj 17 393 +~;
#X obj 193 310 / 4;
#X obj 135 369 / 4;
#X text 47 395 '+' since a bigger value in vd~ means 'earlier'.;
#X text 114 110 subtract speed of read-out \, when;
#X text 114 122 delay-time is static;
#X text 134 37 convert cents of halftones to read-out speed;
#X text 41 229 *);
#X text 93 229 *);
#X text 162 367 *);
#X text 67 336 *);
#X obj 18 287 t l b;
#X obj 43 309 100;
#X obj 43 333 / 4;
#X text 57 165 initial delay (ms);
#X text 71 307 initial delay (ms);
#X text 21 556 *);
#X text 24 572 it seems that if a time is specified in ms instead of
samples \, the value has to be divided by the overlap factor (4 in
this case) in order for the vd~ to read out the desired amount of samples.
i'm still unsure what the reason for this might be.;
#X connect 0 0 5 0;
#X connect 0 0 35 0;
#X connect 4 0 22 0;
#X connect 5 0 23 0;
#X connect 6 0 46 0;
#X connect 7 0 25 0;
#X connect 7 1 8 1;
#X connect 8 0 20 1;
#X connect 9 0 7 0;
#X connect 10 0 9 0;
#X connect 11 0 12 0;
#X connect 12 0 10 0;
#X connect 12 0 26 0;
#X connect 13 0 11 0;
#X connect 14 0 16 1;
#X connect 15 0 16 0;
#X connect 15 1 14 0;
#X connect 16 0 17 0;
#X connect 17 0 9 1;
#X connect 17 0 27 0;
#X connect 17 0 31 0;
#X connect 18 0 13 0;
#X connect 20 0 33 0;
#X connect 21 0 23 1;
#X connect 21 0 22 1;
#X connect 22 0 1 0;
#X connect 23 0 2 0;
#X connect 24 0 20 0;
#X connect 25 0 8 0;
#X connect 26 0 36 0;
#X connect 27 0 26 0;
#X connect 27 1 26 1;
#X connect 29 0 18 0;
#X connect 30 0 15 0;
#X connect 31 0 34 0;
#X connect 33 0 6 0;
#X connect 34 0 6 1;
#X connect 35 0 4 0;
#X connect 36 0 37 0;
#X connect 37 0 35 1;
#X connect 46 0 0 0;
#X connect 46 1 47 0;
#X connect 47 0 48 0;
#X connect 48 0 0 0;
#X restore 379 86 pd read-windows;
#X obj 137 543 tabsend~ \$0-prev-imag;
#X obj 136 567 tabsend~ \$0-prev-real;
#X obj 73 29 tabreceive~ \$0-prev-imag;
#X obj 20 8 tabreceive~ \$0-prev-real;
#X obj 415 648 \$0;
#X obj 21 679 r \$0-window-size;
#X obj 127 622 r \$0-window-size;
#X obj 187 290 r \$0-lock;
#X msg 415 669 \; \$1-window-size 2048 \; \$1-transpo 0 \; \$1-lock
1 \;;
#X connect 0 0 2 1;
#X connect 1 0 2 0;
#X connect 2 0 15 0;
#X connect 2 0 47 0;
#X connect 3 0 5 1;
#X connect 4 0 5 0;
#X connect 5 0 15 1;
#X connect 5 0 46 0;
#X connect 6 0 19 1;
#X connect 7 0 19 0;
#X connect 8 0 10 1;
#X connect 9 0 10 0;
#X connect 10 0 38 0;
#X connect 10 0 37 0;
#X connect 10 0 43 0;
#X connect 11 0 18 1;
#X connect 12 0 16 0;
#X connect 13 0 1 1;
#X connect 13 0 3 1;
#X connect 13 1 0 1;
#X connect 13 1 4 1;
#X connect 14 0 9 1;
#X connect 14 0 7 1;
#X connect 14 1 6 1;
#X connect 14 1 8 1;
#X connect 15 0 24 0;
#X connect 17 0 18 0;
#X connect 18 0 29 0;
#X connect 19 0 39 0;
#X connect 19 0 40 0;
#X connect 19 0 44 0;
#X connect 20 0 1 0;
#X connect 20 0 4 0;
#X connect 21 0 0 0;
#X connect 21 0 3 0;
#X connect 23 0 17 1;
#X connect 23 0 17 0;
#X connect 23 0 20 0;
#X connect 24 0 12 0;
#X connect 25 0 24 1;
#X connect 26 0 12 1;
#X connect 27 0 50 0;
#X connect 28 0 22 0;
#X connect 29 0 20 1;
#X connect 29 0 21 1;
#X connect 30 0 32 1;
#X connect 31 0 32 0;
#X connect 32 0 34 0;
#X connect 33 0 35 1;
#X connect 33 0 36 1;
#X connect 34 0 33 0;
#X connect 35 0 8 0;
#X connect 35 0 7 0;
#X connect 36 0 9 0;
#X connect 36 0 6 0;
#X connect 37 0 41 0;
#X connect 38 0 41 0;
#X connect 39 0 42 0;
#X connect 40 0 42 0;
#X connect 41 0 43 1;
#X connect 42 0 44 1;
#X connect 43 0 23 0;
#X connect 44 0 11 0;
#X connect 44 0 11 1;
#X connect 44 0 21 0;
#X connect 45 0 14 0;
#X connect 45 1 13 0;
#X connect 48 0 30 1;
#X connect 48 0 30 0;
#X connect 48 0 35 0;
#X connect 49 0 31 1;
#X connect 49 0 31 0;
#X connect 49 0 36 0;
#X connect 50 0 54 0;
#X connect 51 0 28 0;
#X connect 52 0 26 0;
#X connect 53 0 41 1;
#X connect 53 0 42 1;
#X restore 294 501 pd fft-analysis;
#N canvas 260 50 667 789 phase-tables 0;
#N canvas 0 50 450 300 (subpatch) 0;
#X array \$0-prev-imag 4096 float 0;
#X coords 0 1000 4096 -1000 400 300 1;
#X restore 169 326 graph;
#N canvas 0 50 450 300 (subpatch) 0;
#X array \$0-prev-real 4096 float 0;
#X coords 0 500 4096 -500 400 300 1;
#X restore 170 17 graph;
#X restore 694 628 pd phase-tables;
#N canvas 0 110 400 363 hann-window 0;
#N canvas 0 50 450 300 (subpatch) 0;
#X array \$0-hann 4096 float 0;
#X coords 0 1 4095 0 300 100 1;
#X restore 36 253 graph;
#X obj 288 130 osc~;
#X obj 288 155 *~ -0.5;
#X obj 288 179 +~ 0.5;
#X obj 241 212 tabwrite~ \$0-hann;
#X obj 26 118 samplerate~;
#X obj 26 142 /;
#X msg 161 71 resize \$1;
#X obj 161 95 s \$0-hann;
#X msg 292 95 0;
#X obj 240 96 t f b;
#X obj 26 67 r \$0-window-size;
#X obj 26 166 s \$0-window-hz;
#X obj 240 70 r \$0-window-hz;
#X obj 26 94 t b f f;
#X text 22 8 calculate Hann window table (variable window size) and
constants window-hz (fundamental frequency of analysis).;
#X connect 1 0 2 0;
#X connect 2 0 3 0;
#X connect 3 0 4 0;
#X connect 5 0 6 0;
#X connect 6 0 12 0;
#X connect 7 0 8 0;
#X connect 9 0 1 1;
#X connect 10 0 1 0;
#X connect 10 1 4 0;
#X connect 10 1 9 0;
#X connect 11 0 14 0;
#X connect 13 0 10 0;
#X connect 14 0 5 0;
#X connect 14 1 6 1;
#X connect 14 2 7 0;
#X restore 694 657 pd hann-window;
#X obj 294 472 delwrite~ \$0-input 1000;
#X obj 294 400 inlet~;
#X obj 296 599 outlet~;
#X obj 626 512 s \$0-transpo;
#X obj 375 400 inlet;
#X obj 657 466 s \$0-window-size;
#X obj 689 381 inlet;
#X obj 555 463 f;
#X obj 606 433 t b f;
#X connect 0 0 5 0;
#X connect 4 0 3 0;
#X connect 7 0 10 0;
#X connect 9 0 11 0;
#X connect 10 0 6 0;
#X connect 11 0 10 0;
#X connect 11 1 8 0;
#X restore -190 452 pd fft-pitchshifter-sub;
#N canvas 329 112 450 300 fft-pitchshifter-sub 0;
#N canvas 948 104 616 776 fft-analysis 0;
#X obj 51 477 *~;
#X obj 18 477 *~;
#X obj 18 499 -~;
#X obj 167 475 *~;
#X obj 136 475 *~;
#X obj 136 497 +~;
#X obj 109 193 *~;
#X obj 78 193 *~;
#X obj 50 193 *~;
#X obj 19 193 *~;
#X obj 19 218 +~;
#X obj 127 379 *~;
#X obj 20 622 *~;
#X obj 236 175 rfft~;
#X obj 108 161 rfft~;
#X obj 19 564 rifft~;
#X obj 21 646 outlet~;
#X obj 97 379 *~;
#X obj 97 401 +~;
#X obj 124 218 -~;
#X obj 18 431 *~;
#X obj 51 432 *~;
#X obj 21 728 block~;
#X obj 19 349 +~ 1e-15;
#X obj 19 598 *~;
#X obj 52 598 tabreceive~ \$0-hann;
#X obj 127 643 expr 2/(3*$f1);
#X obj 415 626 loadbang;
#X msg 21 703 set \$1 4;
#X obj 97 425 q8_rsqrt~;
#X obj 121 69 *~;
#X obj 89 69 *~;
#X obj 89 91 +~;
#X obj 159 94 q8_rsqrt~;
#X obj 159 71 +~ 1e-20;
#X obj 73 119 *~;
#X obj 19 118 *~;
#X obj 29 245 lrshift~ 1;
#X obj 24 269 lrshift~ -1;
#X obj 141 245 lrshift~ 1;
#X obj 133 269 lrshift~ -1;
#X obj 35 300 *~;
#X obj 159 312 *~;
#X obj 19 325 +~;
#X obj 125 331 +~;
#N canvas 139 105 520 694 read-windows 0;
#X obj 18 358 line~;
#X obj 16 523 outlet~;
#X obj 125 531 outlet~;
#X text 220 313 "back" window 1/4 cycle behind "front" one;
#X obj 16 441 vd~ \$0-input;
#X obj 123 443 vd~ \$0-input;
#X obj 18 266 pack f f;
#X obj 31 143 t b f;
#X obj 31 184 -;
#X obj 90 145 *;
#X obj 90 114 - 1;
#X obj 90 57 mtof;
#X obj 90 77 / 440;
#X obj 90 38 + 69;
#X obj 353 123 samplerate~;
#X obj 328 102 t f b;
#X obj 328 141 /;
#X obj 328 163 * 1000;
#X obj 90 16 * 0.01;
#X text 376 163 window size (ms);
#X obj 18 207 f;
#X obj 164 468 tabreceive~ \$0-hann;
#X obj 16 492 *~;
#X obj 124 503 *~;
#X obj 18 75 bang~;
#X obj 31 164 100;
#X obj 197 286 *;
#X obj 206 263 t b f;
#X text 235 288 stretched window size (ms);
#X obj 90 -6 r \$0-transpo;
#X obj 328 81 r \$0-window-size;
#X obj 220 210 / 4;
#X text 252 207 computation time for an overlap of 4;
#X obj 18 230 / 4;
#X obj 71 229 / 4;
#X obj 17 393 +~;
#X obj 193 310 / 4;
#X obj 135 369 / 4;
#X text 47 395 '+' since a bigger value in vd~ means 'earlier'.;
#X text 114 110 subtract speed of read-out \, when;
#X text 114 122 delay-time is static;
#X text 134 37 convert cents of halftones to read-out speed;
#X text 41 229 *);
#X text 93 229 *);
#X text 162 367 *);
#X text 67 336 *);
#X obj 18 287 t l b;
#X obj 43 309 100;
#X obj 43 333 / 4;
#X text 57 165 initial delay (ms);
#X text 71 307 initial delay (ms);
#X text 21 556 *);
#X text 24 572 it seems that if a time is specified in ms instead of
samples \, the value has to be divided by the overlap factor (4 in
this case) in order for the vd~ to read out the desired amount of samples.
i'm still unsure what the reason for this might be.;
#X connect 0 0 5 0;
#X connect 0 0 35 0;
#X connect 4 0 22 0;
#X connect 5 0 23 0;
#X connect 6 0 46 0;
#X connect 7 0 25 0;
#X connect 7 1 8 1;
#X connect 8 0 20 1;
#X connect 9 0 7 0;
#X connect 10 0 9 0;
#X connect 11 0 12 0;
#X connect 12 0 10 0;
#X connect 12 0 26 0;
#X connect 13 0 11 0;
#X connect 14 0 16 1;
#X connect 15 0 16 0;
#X connect 15 1 14 0;
#X connect 16 0 17 0;
#X connect 17 0 9 1;
#X connect 17 0 27 0;
#X connect 17 0 31 0;
#X connect 18 0 13 0;
#X connect 20 0 33 0;
#X connect 21 0 23 1;
#X connect 21 0 22 1;
#X connect 22 0 1 0;
#X connect 23 0 2 0;
#X connect 24 0 20 0;
#X connect 25 0 8 0;
#X connect 26 0 36 0;
#X connect 27 0 26 0;
#X connect 27 1 26 1;
#X connect 29 0 18 0;
#X connect 30 0 15 0;
#X connect 31 0 34 0;
#X connect 33 0 6 0;
#X connect 34 0 6 1;
#X connect 35 0 4 0;
#X connect 36 0 37 0;
#X connect 37 0 35 1;
#X connect 46 0 0 0;
#X connect 46 1 47 0;
#X connect 47 0 48 0;
#X connect 48 0 0 0;
#X restore 379 86 pd read-windows;
#X obj 137 543 tabsend~ \$0-prev-imag;
#X obj 136 567 tabsend~ \$0-prev-real;
#X obj 73 29 tabreceive~ \$0-prev-imag;
#X obj 20 8 tabreceive~ \$0-prev-real;
#X obj 415 648 \$0;
#X obj 21 679 r \$0-window-size;
#X obj 127 622 r \$0-window-size;
#X obj 187 290 r \$0-lock;
#X msg 415 669 \; \$1-window-size 2048 \; \$1-transpo 0 \; \$1-lock
1 \;;
#X connect 0 0 2 1;
#X connect 1 0 2 0;
#X connect 2 0 15 0;
#X connect 2 0 47 0;
#X connect 3 0 5 1;
#X connect 4 0 5 0;
#X connect 5 0 15 1;
#X connect 5 0 46 0;
#X connect 6 0 19 1;
#X connect 7 0 19 0;
#X connect 8 0 10 1;
#X connect 9 0 10 0;
#X connect 10 0 38 0;
#X connect 10 0 37 0;
#X connect 10 0 43 0;
#X connect 11 0 18 1;
#X connect 12 0 16 0;
#X connect 13 0 1 1;
#X connect 13 0 3 1;
#X connect 13 1 0 1;
#X connect 13 1 4 1;
#X connect 14 0 9 1;
#X connect 14 0 7 1;
#X connect 14 1 6 1;
#X connect 14 1 8 1;
#X connect 15 0 24 0;
#X connect 17 0 18 0;
#X connect 18 0 29 0;
#X connect 19 0 39 0;
#X connect 19 0 40 0;
#X connect 19 0 44 0;
#X connect 20 0 1 0;
#X connect 20 0 4 0;
#X connect 21 0 0 0;
#X connect 21 0 3 0;
#X connect 23 0 17 1;
#X connect 23 0 17 0;
#X connect 23 0 20 0;
#X connect 24 0 12 0;
#X connect 25 0 24 1;
#X connect 26 0 12 1;
#X connect 27 0 50 0;
#X connect 28 0 22 0;
#X connect 29 0 20 1;
#X connect 29 0 21 1;
#X connect 30 0 32 1;
#X connect 31 0 32 0;
#X connect 32 0 34 0;
#X connect 33 0 35 1;
#X connect 33 0 36 1;
#X connect 34 0 33 0;
#X connect 35 0 8 0;
#X connect 35 0 7 0;
#X connect 36 0 9 0;
#X connect 36 0 6 0;
#X connect 37 0 41 0;
#X connect 38 0 41 0;
#X connect 39 0 42 0;
#X connect 40 0 42 0;
#X connect 41 0 43 1;
#X connect 42 0 44 1;
#X connect 43 0 23 0;
#X connect 44 0 11 0;
#X connect 44 0 11 1;
#X connect 44 0 21 0;
#X connect 45 0 14 0;
#X connect 45 1 13 0;
#X connect 48 0 30 1;
#X connect 48 0 30 0;
#X connect 48 0 35 0;
#X connect 49 0 31 1;
#X connect 49 0 31 0;
#X connect 49 0 36 0;
#X connect 50 0 54 0;
#X connect 51 0 28 0;
#X connect 52 0 26 0;
#X connect 53 0 41 1;
#X connect 53 0 42 1;
#X restore 294 501 pd fft-analysis;
#N canvas 260 50 667 789 phase-tables 0;
#N canvas 0 50 450 300 (subpatch) 0;
#X array \$0-prev-imag 4096 float 0;
#X coords 0 1000 4096 -1000 400 300 1;
#X restore 169 326 graph;
#N canvas 0 50 450 300 (subpatch) 0;
#X array \$0-prev-real 4096 float 0;
#X coords 0 500 4096 -500 400 300 1;
#X restore 170 17 graph;
#X restore 694 628 pd phase-tables;
#N canvas 0 110 400 363 hann-window 0;
#N canvas 0 50 450 300 (subpatch) 0;
#X array \$0-hann 4096 float 0;
#X coords 0 1 4095 0 300 100 1;
#X restore 36 253 graph;
#X obj 288 130 osc~;
#X obj 288 155 *~ -0.5;
#X obj 288 179 +~ 0.5;
#X obj 241 212 tabwrite~ \$0-hann;
#X obj 26 118 samplerate~;
#X obj 26 142 /;
#X msg 161 71 resize \$1;
#X obj 161 95 s \$0-hann;
#X msg 292 95 0;
#X obj 240 96 t f b;
#X obj 26 67 r \$0-window-size;
#X obj 26 166 s \$0-window-hz;
#X obj 240 70 r \$0-window-hz;
#X obj 26 94 t b f f;
#X text 22 8 calculate Hann window table (variable window size) and
constants window-hz (fundamental frequency of analysis).;
#X connect 1 0 2 0;
#X connect 2 0 3 0;
#X connect 3 0 4 0;
#X connect 5 0 6 0;
#X connect 6 0 12 0;
#X connect 7 0 8 0;
#X connect 9 0 1 1;
#X connect 10 0 1 0;
#X connect 10 1 4 0;
#X connect 10 1 9 0;
#X connect 11 0 14 0;
#X connect 13 0 10 0;
#X connect 14 0 5 0;
#X connect 14 1 6 1;
#X connect 14 2 7 0;
#X restore 694 657 pd hann-window;
#X obj 294 472 delwrite~ \$0-input 1000;
#X obj 294 400 inlet~;
#X obj 296 599 outlet~;
#X obj 626 512 s \$0-transpo;
#X obj 375 400 inlet;
#X obj 657 466 s \$0-window-size;
#X obj 689 381 inlet;
#X obj 555 463 f;
#X obj 606 433 t b f;
#X connect 0 0 5 0;
#X connect 4 0 3 0;
#X connect 7 0 10 0;
#X connect 9 0 11 0;
#X connect 10 0 6 0;
#X connect 11 0 10 0;
#X connect 11 1 8 0;
#X restore 543 421 pd fft-pitchshifter-sub;
#X obj 122 186 hsl 128 15 0 127 0 0 empty empty FB_volume -2 -8 0 10
-262144 -1 -1 0 1;
#X obj 122 234 hsl 128 15 0 127 0 0 empty empty Delay_time -2 -8 0
10 -262144 -1 -1 0 1;
#X obj 124 279 hsl 128 15 0 127 0 0 empty empty transpose_cents -2
-8 0 10 -262144 -1 -1 0 1;
#X obj 126 326 hsl 128 15 0 127 0 0 empty empty voice_volume -2 -8
0 10 -262144 -1 -1 0 1;
#X obj 334 185 hsl 128 15 0 127 0 0 empty empty FB_volume -2 -8 0 10
-262144 -1 -1 0 1;
#X obj 333 233 hsl 128 15 0 127 0 0 empty empty Delay_time -2 -8 0
10 -262144 -1 -1 0 1;
#X obj 333 277 hsl 128 15 0 127 0 0 empty empty Transpose_in_cents
-2 -8 0 10 -262144 -1 -1 0 1;
#X obj 335 324 hsl 128 15 0 127 0 0 empty empty voice_volume -2 -8
0 10 -262144 -1 -1 0 1;
#X obj -189 636 dac~;
#X obj 544 22 catch~ catch_1;
#X text -733 766 extend view;
#X obj 551 573 *~;
#X obj 526 606 dac~;
#X text 142 138 voice one;
#X text 351 137 voice two;
#X connect 0 0 4 0;
#X connect 1 0 24 2;
#X connect 2 0 25 2;
#X connect 3 0 34 0;
#X connect 6 0 24 1;
#X connect 7 0 25 1;
#X connect 8 0 3 1;
#X connect 9 0 37 1;
#X connect 10 0 15 1;
#X connect 11 0 14 1;
#X connect 12 0 7 0;
#X connect 13 0 6 0;
#X connect 14 0 5 0;
#X connect 15 0 4 0;
#X connect 16 0 15 0;
#X connect 16 0 24 0;
#X connect 17 0 14 0;
#X connect 17 0 25 0;
#X connect 18 0 16 0;
#X connect 19 0 18 0;
#X connect 20 0 17 0;
#X connect 21 0 20 0;
#X connect 22 0 1 0;
#X connect 23 0 2 0;
#X connect 24 0 3 0;
#X connect 25 0 37 0;
#X connect 26 0 10 0;
#X connect 27 0 19 0;
#X connect 28 0 13 0;
#X connect 29 0 8 0;
#X connect 30 0 11 0;
#X connect 31 0 21 0;
#X connect 32 0 12 0;
#X connect 33 0 9 0;
#X connect 35 0 5 0;
#X connect 37 0 38 1;
#X coords 0 -1 1 1 400 270 1 100 100;
